# xmcd CD database file
#
# Track frame offsets:
#	150
#	18707
#	34270
#	56030
#	74302
#	96042
#	110510
#	126857
#
# Disc length: 1903 seconds
#
# Revision: 3
# Processed by: cddbd v1.5.2PL0 Copyright (c) Steve Scherf et al.
# Submitted via: CDex 1.51
#
DISCID=6f076d08
DTITLE=Mattos Nascimento - Você Já Imaginou
DYEAR=2000
DGENRE=Country
TTITLE0=Você Já Imaginou
TTITLE1=Quem pode ver
TTITLE2=Descanso e prazer
TTITLE3=Algemas Caidas
TTITLE4=Sangue Inocente
TTITLE5=Achei a Vida em Jesus
TTITLE6=Jesus Vem
TTITLE7=Quando desce o Espírito Santo
EXTD=YEAR: 2000
EXTT0=
EXTT1=
EXTT2=
EXTT3=
EXTT4=
EXTT5=
EXTT6=
EXTT7=
PLAYORDER=
